<?xml version="1.0" encoding="UTF-8"?>
<svg version="1.1" xmlns="http://www.w3.org/2000/svg" width="512" height="512">
<path d="M0 0 C1.4033346 -0.00408138 2.80666597 -0.0094319 4.20999146 -0.01593018 C7.9684126 -0.02942521 11.72658239 -0.0243799 15.48500705 -0.01479292 C19.45282501 -0.00710098 23.42062402 -0.01426813 27.38844299 -0.01895142 C34.0479003 -0.02438225 40.70725722 -0.01728881 47.36669922 -0.00292969 C55.02051042 0.01338493 62.67408162 0.00810614 70.327887 -0.0084089 C76.94670017 -0.02210866 83.56544192 -0.02390214 90.18426472 -0.0160929 C94.11656525 -0.01146176 98.04875374 -0.01066335 101.98104668 -0.02070236 C140.58692953 -0.10569367 171.63150254 6.74817755 200.14282227 34.38818359 C220.24967482 54.41958829 231.20134589 82.97041343 231.58032227 111.13818359 C231.48762274 125.2884093 226.99696463 136.15256024 217.51782227 146.57568359 C207.83837356 155.88356037 195.98435389 158.69631621 183.04216003 158.64888 C181.93250848 158.65270555 180.82285692 158.6565311 179.67957956 158.66047257 C175.9657 158.67078156 172.25197565 158.66681433 168.53808594 158.6628418 C165.87350452 158.66718946 163.20893444 158.67230844 160.5443573 158.67832947 C154.06018827 158.69106597 147.57606067 158.69287143 141.09188124 158.6905292 C135.81943645 158.68874452 130.54700422 158.69049892 125.27456093 158.69475365 C124.52349833 158.69534884 123.77243573 158.69594402 122.99861366 158.69655725 C121.47269771 158.69776903 119.94678176 158.69898317 118.42086581 158.70019963 C104.11659569 158.71107137 89.81234916 158.70891455 75.50807772 158.70281478 C62.43346561 158.69764737 49.35892805 158.70889707 36.28433069 158.727913 C22.8482063 158.74730438 9.41211715 158.75554503 -4.02402133 158.75178975 C-11.56288683 158.74987949 -19.10168892 158.75234801 -26.64054298 158.76650429 C-33.05937551 158.77843572 -39.47810558 158.77980337 -45.89693955 158.76771412 C-49.16910957 158.76183739 -52.44105432 158.76232908 -55.71321869 158.77271652 C-59.2675067 158.7831845 -62.82129438 158.77508216 -66.37556458 158.7624054 C-67.39999926 158.76977968 -68.42443394 158.77715397 -69.4799121 158.78475171 C-82.31944941 158.68867564 -93.47207911 154.17367355 -102.93920898 145.46240234 C-112.41546489 135.21415004 -115.42817872 124.0413087 -115.29467773 110.38818359 C-115.28710449 109.2945752 -115.27953125 108.2009668 -115.27172852 107.07421875 C-114.67680893 77.41943175 -100.75226229 50.61486038 -79.87939453 29.99291992 C-58.47165512 9.57538577 -29.22196873 -0.13955062 0 0 Z " fill="#E55939" transform="translate(114.857177734375,292.61181640625)"/>
<path d="M0 0 C1.06992188 0.53496094 2.13984375 1.06992188 3.2421875 1.62109375 C11.2918518 5.9804574 17.50437844 11.66145606 24 18 C24.73089844 18.65742187 25.46179688 19.31484375 26.21484375 19.9921875 C41.98501478 34.54446413 51.71727294 58.00384575 53.22265625 79.1237793 C54.26720356 108.85060529 47.86996339 135.07937198 27.4375 157.4375 C8.13772084 177.88797046 -17.0502007 189.42517879 -45.16674805 190.28320312 C-73.57419816 190.67106227 -99.29263521 179.64439717 -119.625 159.875 C-135.88484974 143.47294286 -147.07576007 120.29854825 -148 97 C-148.0515625 95.94167969 -148.103125 94.88335937 -148.15625 93.79296875 C-148.79826127 68.67427777 -141.50456414 44.28428021 -125 25 C-124.35675781 24.21238281 -123.71351562 23.42476562 -123.05078125 22.61328125 C-92.82023389 -12.98165159 -40.9131147 -20.63453718 0 0 Z " fill="#E65739" transform="translate(220,72)"/>
<path d="M0 0 C8.36104431 6.12959591 12.39362429 12.38567452 14.62109375 22.48828125 C14.98092594 26.17872696 14.97416069 29.82228553 14.9140625 33.52734375 C14.90981766 34.53421234 14.90557281 35.54108093 14.90119934 36.57846069 C14.88456535 39.75702004 14.8469425 42.93491739 14.80859375 46.11328125 C14.79352714 48.28384493 14.77984222 50.45441867 14.76757812 52.625 C14.73471222 57.91298177 14.68466836 63.20058419 14.62109375 68.48828125 C15.20023529 68.4793988 15.77937683 68.47051636 16.37606812 68.46136475 C22.44380754 68.37236598 28.51135934 68.3123307 34.57958984 68.26855469 C36.83943218 68.24853036 39.0992233 68.22130263 41.35888672 68.18652344 C44.62089737 68.13760047 47.88221862 68.11521993 51.14453125 68.09765625 C52.1428598 68.07701111 53.14118835 68.05636597 54.16976929 68.03509521 C63.88008834 68.03204002 71.73106701 70.78919743 78.86328125 77.48828125 C86.06514906 85.6824064 87.09586881 93.98755862 86.89453125 104.5 C86.2884809 113.33967728 82.00667598 119.53187257 75.62109375 125.48828125 C67.48234374 131.91446863 59.06189299 132.79377577 48.99609375 132.68359375 C48.00859131 132.68076385 47.02108887 132.67793396 46.00366211 132.67501831 C42.8760116 132.66389945 39.74865647 132.63881041 36.62109375 132.61328125 C34.48958749 132.60324073 32.35807671 132.59411676 30.2265625 132.5859375 C25.02464025 132.56398737 19.82288811 132.53059332 14.62109375 132.48828125 C14.64465942 134.45450439 14.64465942 134.45450439 14.66870117 136.46044922 C14.7233387 141.36191572 14.75756616 146.26335573 14.78588867 151.16503906 C14.80089862 153.27934305 14.82131295 155.39361632 14.84741211 157.5078125 C14.88414008 160.56127546 14.90089849 163.61432382 14.9140625 166.66796875 C14.92954636 167.60067596 14.94503021 168.53338318 14.96098328 169.49435425 C14.96355312 179.70347976 12.55398267 187.87402733 5.62109375 195.48828125 C-1.18746914 202.29684414 -8.44073684 204.71220969 -17.94140625 204.98828125 C-24.3010434 204.80255167 -28.98060496 203.83061036 -34.37890625 200.48828125 C-35.00152344 200.13765625 -35.62414062 199.78703125 -36.265625 199.42578125 C-43.11124111 195.14912737 -47.35016518 188.19197837 -49.37890625 180.48828125 C-49.64780397 176.7910025 -49.61175513 173.1076785 -49.57421875 169.40234375 C-49.57138885 168.34542328 -49.56855896 167.28850281 -49.56564331 166.19955444 C-49.55448475 162.83734624 -49.52938784 159.47540839 -49.50390625 156.11328125 C-49.49387087 153.82812886 -49.484746 151.54297227 -49.4765625 149.2578125 C-49.45455957 143.66787714 -49.42112498 138.07809852 -49.37890625 132.48828125 C-51.34512939 132.51184692 -51.34512939 132.51184692 -53.35107422 132.53588867 C-58.25254072 132.5905262 -63.15398073 132.62475366 -68.05566406 132.65307617 C-70.16996805 132.66808612 -72.28424132 132.68850045 -74.3984375 132.71459961 C-77.45190046 132.75132758 -80.50494882 132.76808599 -83.55859375 132.78125 C-84.95765457 132.80447578 -84.95765457 132.80447578 -86.38497925 132.82817078 C-96.52046601 132.83072208 -105.66900248 130.26767939 -113.37890625 123.48828125 C-119.70212662 116.15721134 -123.02076265 107.72254695 -122.66015625 98.03125 C-121.57248942 88.19692911 -117.54461223 81.56141599 -110.56640625 74.73828125 C-102.78487048 69.24543247 -96.22368203 67.90753799 -86.78125 68.09765625 C-85.70637833 68.10331604 -84.63150665 68.10897583 -83.52406311 68.11480713 C-80.12104058 68.13703808 -76.71910574 68.18721065 -73.31640625 68.23828125 C-70.99676009 68.25836336 -68.67709729 68.27661112 -66.35742188 68.29296875 C-60.69755115 68.33685913 -55.03830644 68.40363713 -49.37890625 68.48828125 C-49.3877887 67.90913971 -49.39667114 67.32999817 -49.40582275 66.73330688 C-49.49482152 60.66556746 -49.5548568 54.59801566 -49.59863281 48.52978516 C-49.61865714 46.26994282 -49.64588487 44.0101517 -49.68066406 41.75048828 C-49.72958703 38.48847763 -49.75196757 35.22715638 -49.76953125 31.96484375 C-49.79017639 30.9665152 -49.81082153 29.96818665 -49.83209229 28.93960571 C-49.83515764 19.1969748 -47.01926411 11.34827514 -40.30078125 4.2421875 C-29.24893785 -5.84374276 -12.8621313 -8.1734726 0 0 Z " fill="#C01E6D" transform="translate(425.37890625,106.51171875)"/>
</svg>
