<?xml version="1.0" encoding="UTF-8"?>
<svg version="1.1" xmlns="http://www.w3.org/2000/svg" width="512" height="512">
<path d="M0 0 C1.56983579 -0.00462229 3.13966723 -0.01098403 4.70948982 -0.01890898 C8.97516917 -0.03544332 13.2404857 -0.02742935 17.5061655 -0.0149641 C22.12520741 -0.00585003 26.74419034 -0.01991461 31.36322021 -0.03088379 C40.39291324 -0.04860623 49.42247274 -0.04485712 58.45217085 -0.03323323 C65.79529376 -0.02417437 73.13837944 -0.02298548 80.48150635 -0.02732849 C81.52935621 -0.02794142 82.57720608 -0.02855436 83.65680897 -0.02918586 C85.78595274 -0.03046485 87.91509649 -0.03176171 90.04424024 -0.03307623 C109.97704435 -0.04446364 129.90977471 -0.03139722 149.84256673 -0.00987476 C166.92030927 0.00799453 183.99794302 0.00488991 201.07568359 -0.0135498 C220.94051082 -0.03498905 240.80527352 -0.04336518 260.6701107 -0.03110075 C262.79112116 -0.02982665 264.91213162 -0.02856916 267.03314209 -0.02732849 C268.59822815 -0.02640284 268.59822815 -0.02640284 270.1949321 -0.02545848 C277.52338286 -0.02201474 284.85179244 -0.02781283 292.18023682 -0.0372467 C301.11955465 -0.04850206 310.05873211 -0.0453526 318.998034 -0.02412373 C323.55300522 -0.01366073 328.10774297 -0.00940973 332.6627121 -0.02272034 C336.84256183 -0.03474941 341.02196447 -0.02791109 345.20177436 -0.00681013 C346.70358525 -0.00238813 348.20543491 -0.00450951 349.70722032 -0.01431328 C363.17891955 -0.09542452 376.5984889 1.88990558 388.50732422 8.57043457 C389.20849365 8.95328613 389.90966309 9.3361377 390.63208008 9.73059082 C397.62500698 13.71878813 403.19504905 18.74278006 408.75732422 24.50793457 C409.48177734 25.2014502 410.20623047 25.89496582 410.95263672 26.60949707 C415.35944418 31.08543092 418.48879209 36.10549825 421.50732422 41.57043457 C422.0548938 42.53263916 422.0548938 42.53263916 422.61352539 43.51428223 C429.04398062 55.75645472 430.35399901 69.15698952 430.26525879 82.75061035 C430.26988108 84.32044614 430.27624282 85.89027758 430.28416777 87.46010017 C430.30070211 91.72577952 430.29268813 95.99109605 430.28022289 100.25677586 C430.27110882 104.87581776 430.2851734 109.49480069 430.29614258 114.11383057 C430.31386502 123.14352359 430.31011591 132.1730831 430.29849201 141.2027812 C430.28943316 148.54590411 430.28824427 155.88898979 430.29258728 163.2321167 C430.29320021 164.27996657 430.29381314 165.32781643 430.29444465 166.40741932 C430.29572364 168.53656309 430.2970205 170.66570684 430.29833502 172.79485059 C430.30972243 192.72765471 430.29665601 212.66038506 430.27513355 232.59317708 C430.25726426 249.67091962 430.26036888 266.74855337 430.27880859 283.82629395 C430.30024784 303.69112118 430.30862397 323.55588387 430.29635954 343.42072105 C430.29508543 345.54173151 430.29382795 347.66274197 430.29258728 349.78375244 C430.29197018 350.82714315 430.29135308 351.87053385 430.29071727 352.94554245 C430.28727353 360.27399321 430.29307162 367.60240279 430.30250549 374.93084717 C430.31376084 383.870165 430.31061139 392.80934246 430.28938252 401.74864435 C430.27891952 406.30361557 430.27466852 410.85835332 430.28797913 415.41332245 C430.3000082 419.59317219 430.29316988 423.77257482 430.27206892 427.95238471 C430.26764692 429.4541956 430.2697683 430.95604527 430.27957207 432.45783067 C430.3606833 445.9295299 428.37535321 459.34909925 421.69482422 471.25793457 C421.31197266 471.959104 420.92912109 472.66027344 420.53466797 473.38269043 C416.54746506 480.37387373 411.52544957 485.95063251 405.75732422 491.50793457 C404.68224609 492.6120166 404.68224609 492.6120166 403.58544922 493.73840332 C391.67889129 505.30925003 373.78273138 512.61630618 357.25217724 512.64215565 C356.60961956 512.64450788 355.96706188 512.64686011 355.30503276 512.64928362 C353.14915414 512.65594731 350.99333616 512.65551619 348.83744812 512.65510559 C347.27711086 512.65840588 345.71677445 512.66213179 344.15643913 512.66624707 C339.86602635 512.67625686 335.57562756 512.67998224 331.28520477 512.68263638 C326.65848884 512.68654258 322.03178395 512.69612085 317.40507507 512.70484924 C306.22863869 512.72460696 295.05220142 512.73467997 283.87575194 512.74357703 C278.60943128 512.74796194 273.34311163 512.75332831 268.07679176 512.7585659 C250.56390307 512.77557914 233.051015 512.79007181 215.53811932 512.79731464 C210.99391873 512.79922447 206.44971815 512.80114481 201.90551758 512.80310059 C200.77610844 512.80358433 199.6466993 512.80406807 198.48306564 512.80456647 C180.20035784 512.81286111 161.91771558 512.83818806 143.63503637 512.87068126 C124.85399341 512.90378727 106.07298371 512.92176669 87.29191142 512.92495888 C76.75144278 512.92712093 66.21106966 512.93582464 55.6706295 512.96142006 C46.69080775 512.98317564 37.71110472 512.99115371 28.73125961 512.98145328 C24.15407257 512.97692235 19.57713025 512.97872406 14.99997711 512.99821472 C10.79935736 513.01594648 6.59915901 513.01476843 2.39853416 512.99931743 C0.88898248 512.99695641 -0.62059916 513.00118556 -2.13010529 513.01314608 C-15.63055965 513.11338193 -29.05731204 511.14084527 -40.99267578 504.44543457 C-41.69384521 504.06258301 -42.39501465 503.67973145 -43.11743164 503.28527832 C-50.11035854 499.29708101 -55.68040061 494.27308908 -61.24267578 488.50793457 C-61.96712891 487.81441895 -62.69158203 487.12090332 -63.43798828 486.40637207 C-67.84479574 481.93043822 -70.97414366 476.91037089 -73.99267578 471.44543457 C-74.35772217 470.80396484 -74.72276855 470.16249512 -75.09887695 469.50158691 C-81.52933218 457.25941442 -82.83935057 443.85887962 -82.75061035 430.26525879 C-82.75523265 428.695423 -82.76159438 427.12559156 -82.76951933 425.55576897 C-82.78605367 421.29008962 -82.7780397 417.02477309 -82.76557446 412.75909328 C-82.75646038 408.14005138 -82.77052496 403.52106845 -82.78149414 398.90203857 C-82.79921658 389.87234555 -82.79546747 380.84278604 -82.78384358 371.81308794 C-82.77478472 364.46996503 -82.77359583 357.12687935 -82.77793884 349.78375244 C-82.77855177 348.73590258 -82.77916471 347.68805271 -82.77979621 346.60844982 C-82.7810752 344.47930605 -82.78237206 342.3501623 -82.78368658 340.22101855 C-82.795074 320.28821443 -82.78200757 300.35548408 -82.76048511 280.42269206 C-82.74261582 263.34494952 -82.74572044 246.26731577 -82.76416016 229.1895752 C-82.7855994 209.32474797 -82.79397553 189.45998527 -82.7817111 169.59514809 C-82.780437 167.47413763 -82.77917951 165.35312717 -82.77793884 163.2321167 C-82.77732174 162.18872599 -82.77670464 161.14533529 -82.77606884 160.07032669 C-82.77262509 152.74187593 -82.77842318 145.41346635 -82.78785706 138.08502197 C-82.79911241 129.14570414 -82.79596295 120.20652668 -82.77473408 111.26722479 C-82.76427108 106.71225357 -82.76002008 102.15751582 -82.77333069 97.60254669 C-82.78535977 93.42269696 -82.77852144 89.24329432 -82.75742048 85.06348443 C-82.75299848 83.56167354 -82.75511986 82.05982388 -82.76492363 80.55803847 C-82.84603487 67.08633924 -80.86070477 53.66676989 -74.18017578 41.75793457 C-73.79732422 41.05676514 -73.41447266 40.3555957 -73.02001953 39.63317871 C-69.03182222 32.64025181 -64.00783029 27.07020974 -58.24267578 21.50793457 C-57.54916016 20.78348145 -56.85564453 20.05902832 -56.14111328 19.31262207 C-51.66517943 14.90581461 -46.6451121 11.7764667 -41.18017578 8.75793457 C-40.53870605 8.39288818 -39.89723633 8.0278418 -39.23632812 7.6517334 C-26.99415563 1.22127817 -13.59362083 -0.08874022 0 0 Z M117.75732422 117.50793457 C101.25765226 134.89584335 94.11137879 155.54309895 94.48779297 179.26574707 C95.22108511 199.15494174 105.47637699 219.33812745 119.87841797 232.90246582 C131.22197389 242.59519239 145.03379016 249.85998116 159.75732422 252.50793457 C160.87107422 252.73480957 161.98482422 252.96168457 163.13232422 253.19543457 C186.74493128 255.23100414 208.07662799 248.81567166 226.31591797 233.68762207 C240.61604195 220.92047138 251.62871136 201.82671983 252.89453125 182.40246582 C253.93208201 161.39097771 249.59878114 141.10931092 235.72216797 124.65246582 C235.07376953 123.94477051 234.42537109 123.2370752 233.75732422 122.50793457 C232.93361328 121.60430176 232.10990234 120.70066895 231.26123047 119.76965332 C216.51800246 104.31540439 197.5443736 95.74341813 176.20654297 94.50793457 C154.38459091 94.50793457 133.52631606 102.30830978 117.75732422 117.50793457 Z M30.07373047 320.80871582 C23.04525406 334.7689868 18.17176627 349.2798882 14.75732422 364.50793457 C14.51111328 365.5830127 14.26490234 366.65809082 14.01123047 367.76574707 C12.85811373 373.60290352 12.48532365 379.44651436 12.31982422 385.38293457 C12.28526123 386.09723633 12.25069824 386.81153809 12.21508789 387.54748535 C12.18222565 391.72148032 12.76604605 395.1083553 15.71875 398.20349121 C20.7367451 401.41440712 26.9927218 402.28654407 32.75732422 403.50793457 C34.51181885 403.89827881 34.51181885 403.89827881 36.30175781 404.29650879 C39.84204901 405.05769404 43.38858025 405.76273956 46.94482422 406.44543457 C47.92101715 406.63294785 47.92101715 406.63294785 48.91693115 406.82424927 C123.18882304 420.98479966 199.94026049 422.24852349 303.38232422 405.88293457 C304.14022247 405.73690796 304.89812073 405.59088135 305.6789856 405.44042969 C310.38690449 404.52567544 315.07541802 403.54793489 319.75732422 402.50793457 C320.76762695 402.28782715 321.77792969 402.06771973 322.81884766 401.84094238 C326.85503346 400.82185382 329.93596821 399.83324995 332.85107422 396.77355957 C339.28264141 385.75554693 333.55775087 366.25965386 330.50341797 354.55480957 C319.87691837 316.10925258 296.17014975 282.55961045 262.75732422 260.50793457 C261.88205078 259.92141113 261.00677734 259.3348877 260.10498047 258.73059082 C255.39464286 255.82386966 251.37675705 254.51320038 245.75732422 255.50793457 C242.99034501 256.84182839 240.67581085 258.62733313 238.25732422 260.50793457 C225.39611531 269.86895061 212.20032325 275.76235634 196.75732422 279.50793457 C195.77892578 279.75414551 194.80052734 280.00035645 193.79248047 280.25402832 C165.93214729 286.04993695 136.33280416 278.73435499 112.75732422 263.50793457 C110.78785073 262.02259163 108.82877197 260.5233258 106.88232422 259.00793457 C101.88231401 255.28504825 101.88231401 255.28504825 95.89404297 254.80480957 C67.85704051 264.03087985 43.24273676 295.67859868 30.07373047 320.80871582 Z " fill="#F2781B" transform="translate(82.24267578125,-0.5079345703125)"/>
<path d="M0 0 C2.8276453 1.61954917 5.55261698 3.33890364 8.2734375 5.1328125 C36.07877242 22.7903331 71.37883496 27.62385544 103.33447266 20.94140625 C119.59285837 17.25670407 135.81990744 10.98427235 149.04296875 0.71875 C151.5234375 -0.5546875 151.5234375 -0.5546875 153.97265625 -0.06640625 C157.07752938 1.77369467 159.80617689 3.89986594 162.5234375 6.2578125 C163.08522705 6.74209717 163.6470166 7.22638184 164.22583008 7.7253418 C191.40699741 31.46489757 207.77627782 60.65966487 213.5234375 96.4453125 C213.5234375 97.4353125 213.5234375 98.4253125 213.5234375 99.4453125 C174.90523978 108.1749676 135.13212458 113.5322054 95.51171875 113.6484375 C94.02086864 113.6554603 92.53001883 113.66254711 91.03916931 113.66969299 C86.30475426 113.68907941 81.57038825 113.69412669 76.8359375 113.6953125 C75.62610451 113.69597528 75.62610451 113.69597528 74.39183044 113.69665146 C51.03035595 113.70336382 27.80009887 113.60139457 4.58325195 110.70178223 C2.39690398 110.42955767 0.2093477 110.16892868 -1.97851562 109.90917969 C-22.37581605 107.45930692 -42.43556262 103.96413207 -62.4765625 99.4453125 C-60.45296041 84.07900966 -60.45296041 84.07900966 -58.3515625 76.6953125 C-58.14055908 75.94999268 -57.92955566 75.20467285 -57.7121582 74.43676758 C-48.794873 44.42226055 -29.43695891 19.84276682 -5.0625 0.69140625 C-2.4765625 -0.5546875 -2.4765625 -0.5546875 0 0 Z " fill="#F48818" transform="translate(180.4765625,280.5546875)"/>
<path d="M0 0 C0.91523438 0.40089844 1.83046875 0.80179687 2.7734375 1.21484375 C15.63079661 7.42743323 24.70752662 18.49138923 30.0546875 31.58203125 C34.96452705 45.68028481 34.61288309 61.66372493 28.5234375 75.30859375 C20.6789769 90.80050795 9.43152334 100.40628993 -7 106 C-21.63758558 110.28417139 -37.34995794 108.18023706 -50.875 101.3125 C-64.57465663 93.084478 -73.97394905 80.39378343 -78.25 65 C-81.35297305 49.06581408 -78.48153564 33.78019565 -70 20 C-67.22447532 16.41557923 -64.22336837 13.18343283 -61 10 C-60.44699219 9.42507812 -59.89398438 8.85015625 -59.32421875 8.2578125 C-44.66700148 -5.78111025 -17.97280695 -8.66061241 0 0 Z " fill="#F06C1D" transform="translate(279,122)"/>
</svg>
